<svg xmlns="http://www.w3.org/2000/svg" version="1.1" xmlns:xlink="http://www.w3.org/1999/xlink" viewBox="0 0 17.854055641954027 17.671688409936248"><g transform="matrix(1,0,0,1,1.4802159313285763,14.62847247860767)"><g clip-path="url(#SvgjsClipPath1001)"><g clip-path="url(#SvgjsClipPath10007d013e73-a913-43f1-b885-489781b1628d)"><path d=" M 12.876981850845558 -12.900303033789724 L 12.876981850845558 -5.680169961197125 C 12.876981850845558 -4.185737717015179 12.266625522087047 -2.8281652661656924 11.282721053383458 -1.844260797462102 C 10.298816584679868 -0.8603563287585114 8.941244133830379 -0.25 7.446811889648437 -0.25 C 5.952379645466492 -0.25 4.594807194617005 -0.8603563287585114 3.610902725913415 -1.844260797462102 C 2.626998257209823 -2.8281652661656924 2.0166419284513113 -4.185737717015181 2.0166419284513113 -5.680169961197125 L 2.0166419284513113 -13.146458914266846 L 6.801701322653134 -13.146458914266846 L 6.801701322653134 -12.901980824601155 C 6.801701322653134 -12.834869192143907 6.774616985268603 -12.772071878916053 6.727159473745261 -12.724614367392713 C 6.690487760295409 -12.687942653942859 6.644468355181866 -12.663375002775473 6.594374315240562 -12.654147153312602 L 2.5089536894055557 -12.654147153312602 L 2.5089536894055557 -5.680169961197125 C 2.5089536894055557 -4.321638772741107 3.0640627635876547 -3.087144262130183 3.958924477084574 -2.1924023908340793 C 4.853786190581493 -1.2975406773371585 6.088280701192419 -0.7424316031550617 7.446692047447619 -0.7424316031550617 C 8.805103393702819 -0.7424316031550617 10.039597904313743 -1.297660519537974 10.934459617810663 -2.1924023908340793 C 11.829321331307586 -3.087264104331 12.384430405489685 -4.321758614941926 12.384430405489685 -5.680169961197125 L 12.384430405489685 -12.654147153312602 L 8.246159369094594 -12.654147153312602 C 8.196065329153289 -12.663375002775473 8.150165766240566 -12.687942653942859 8.113374210589896 -12.724614367392713 C 8.066036541267373 -12.771952036715236 8.038832361682022 -12.83474934994309 8.038832361682022 -12.901980824601155 L 8.038832361682022 -13.146458914266846 L 12.876622324243112 -13.146458914266846 L 12.876622324243112 -12.900303033789724 L 12.876622324243112 -12.900303033789724 Z" fill="#876a57" transform="matrix(1,0,0,1,0,0)" fill-rule="nonzero"></path></g><g clip-path="url(#SvgjsClipPath10007d013e73-a913-43f1-b885-489781b1628d)"><path d=" M 3.268753242582262 -4.913179875971428 L 7.4522047886851785 -8.82542852162657 L 11.635656334788097 -4.913179875971428 L 11.301056910108382 -4.555450906534128 L 7.4522047886851785 -8.154911408058165 L 3.603352667261972 -4.555450906534128 L 3.268753242582262 -4.913179875971428 Z" fill="#595959" transform="matrix(1,0,0,1,0,0)" fill-rule="nonzero"></path></g><g clip-path="url(#SvgjsClipPath10007d013e73-a913-43f1-b885-489781b1628d)"><path d=" M 3.4167583605906593 -4.620045852774229 C 4.025796425140191 -4.986403460670317 4.679176103991832 -5.266354841777698 5.358202013818207 -5.454866623662077 C 6.038666030054381 -5.6437379321489045 6.743098486453858 -5.74081011481028 7.4522047886851785 -5.74081011481028 C 8.161311090916502 -5.74081011481028 8.929020229347097 -5.6347497670876665 9.637527320574335 -5.428860866084892 C 10.345794727399939 -5.222971965082117 11.02374205741897 -4.918213248405721 11.649797714484444 -4.520696668297338 L 11.386384557089745 -4.105323600267296 C 10.796880771273305 -4.479590793417273 10.161717106945773 -4.76577396896711 9.501027053844325 -4.957761174675168 C 8.840576685144512 -5.149748380383225 8.15100466164628 -5.24861819605685 7.4522047886851785 -5.24861819605685 C 6.753404915724079 -5.24861819605685 6.123634150433291 -5.158137334440383 5.488949854909025 -4.981969299240104 C 4.852707610774146 -4.805441737437377 4.240074280200119 -4.542747633247576 3.668666666706975 -4.199160043506625 L 3.41675836059066 -4.620285537175864 Z" fill="#595959" transform="matrix(1,0,0,1,0,0)" fill-rule="nonzero"></path></g><g clip-path="url(#SvgjsClipPath10007d013e73-a913-43f1-b885-489781b1628d)"><path d=" M 7.698360669162302 -8.4446898496325 C 7.698360669162302 -7.555101192971506 7.500381353413419 -6.793024637979285 7.182679679048837 -6.218620969465726 C 6.8261491316197045 -5.574229455675323 6.315741198342164 -5.159335756448546 5.75428048751679 -5.050519038107151 L 5.662001992888072 -5.533243422996075 C 6.078213956323831 -5.613897224145591 6.467701108977505 -5.9413061167763095 6.751966809314279 -6.455189473877527 C 7.0317983482208435 -6.961043403524039 7.206048908208056 -7.641267735358581 7.206048908208056 -8.4446898496325 L 7.698360669162302 -8.4446898496325 Z" fill="#595959" transform="matrix(1,0,0,1,0,0)" fill-rule="nonzero"></path></g><g clip-path="url(#SvgjsClipPath10007d013e73-a913-43f1-b885-489781b1628d)"><path d=" M 8.42100914008589 -12.25111783196666 L 11.987033667582116 -12.25111783196666 L 11.987033667582116 -6.96344024754037 C 11.874262156613776 -7.363233829464266 11.708760077286168 -7.746129661073032 11.494721906627873 -8.102780050702979 L 11.494721906627873 -11.44362108286498 C 11.494721906627873 -11.617272431848109 11.353068425262753 -11.758925913213229 11.179417076279622 -11.758925913213229 L 8.42100914008589 -11.758925913213229 L 8.42100914008589 -11.759884650819762 L 8.322738535416345 -11.759884650819762 L 8.322738535416345 -11.758925913213229 L 8.322738535416345 -11.758925913213229 C 8.14405381399892 -11.758925913213229 7.981308105290093 -11.685582486313523 7.863263537485826 -11.567537918509254 C 7.745218969681561 -11.449493350704987 7.6718755427818515 -11.286867484196975 7.6718755427818515 -11.10818276277955 L 7.6718755427818515 -10.371632596561247 C 7.599011484685409 -10.37498817818411 7.5257878999865175 -10.376785811196356 7.452084946484361 -10.376785811196356 C 7.360645347261362 -10.376785811196356 7.269685116841624 -10.374029440577576 7.179563781827606 -10.368876225942467 L 7.179563781827606 -11.108182762779549 C 7.179563781827606 -11.286867484196973 7.106220354927899 -11.449493350704985 6.988175787123631 -11.567537918509252 C 6.8701312193193615 -11.685582486313521 6.707505352811352 -11.758925913213229 6.528820631393928 -11.758925913213229 L 3.7249925010907337 -11.758925913213229 C 3.5513411521076033 -11.758925913213229 3.409687670742483 -11.617272431848107 3.409687670742483 -11.443621082864977 L 3.409687670742483 -8.102899892903796 C 3.1956495000841865 -7.746249503273847 3.0302672629573957 -7.36335367166508 2.917375909788237 -6.963560089741184 L 2.917375909788237 -12.251237674167474 L 6.528820631393928 -12.251237674167474 C 6.70750535281135 -12.251237674167474 6.8701312193193615 -12.324581101067182 6.988175787123631 -12.442625668871448 C 7.106220354927899 -12.560670236675717 7.179563781827606 -12.723415945384545 7.179563781827606 -12.902100666801969 L 7.179563781827606 -13.148256547279091 L 7.6718755427818515 -13.148256547279091 L 7.6718755427818515 -12.902100666801969 C 7.6718755427818515 -12.723415945384545 7.745218969681557 -12.560670236675717 7.863263537485826 -12.442625668871448 C 7.981308105290093 -12.324581101067182 8.143933971798106 -12.251237674167474 8.322738535416345 -12.251237674167474 L 8.322738535416345 -12.251237674167474 L 8.322738535416345 -12.25027893656094 L 8.42100914008589 -12.25027893656094 L 8.42100914008589 -12.251237674167474 L 8.42100914008589 -12.251237674167474 Z M 7.615789392799722 -12.004961951489538 C 7.580555785759666 -12.032885184279786 7.5469999695310435 -12.0627258922831 7.515241786314666 -12.094484075499476 C 7.48348360309829 -12.126242258715852 7.453642895094978 -12.159798074944476 7.425719662304728 -12.195031681984531 C 7.39779642951448 -12.159798074944476 7.3679557215111675 -12.126242258715852 7.336197538294791 -12.094484075499476 C 7.304439355078417 -12.0627258922831 7.27088353884979 -12.032885184279786 7.235649931809736 -12.004961951489538 C 7.270883538849792 -11.97703871869929 7.304439355078417 -11.947198010695978 7.336197538294791 -11.9154398274796 C 7.3679557215111675 -11.883681644263223 7.39779642951448 -11.8501258280346 7.425719662304728 -11.814892220994546 C 7.453642895094978 -11.850125828034601 7.48348360309829 -11.883681644263223 7.515241786314666 -11.9154398274796 C 7.5469999695310435 -11.947198010695978 7.5805557857596675 -11.97703871869929 7.615789392799722 -12.004961951489538 Z" fill="#595959" transform="matrix(1,0,0,1,0,0)" fill-rule="nonzero"></path></g><g clip-path="url(#SvgjsClipPath10007d013e73-a913-43f1-b885-489781b1628d)"><path d=" M 4.22701148031112 -11.758806071012415 L 5.319972351757739 -9.86577866691474 C 5.173285497958325 -9.790877291404417 5.031152647789936 -9.70854569944347 4.89381348565421 -9.61914341763435 L 3.6620753456620667 -11.75245443436914 C 3.6824485198008743 -11.756648911397718 3.703420904943764 -11.758806071012415 3.72487265888992 -11.758806071012415 L 4.2268916381103026 -11.758806071012415 Z M 5.575356081697732 -9.42344110370098 L 5.6441455049664135 -9.304198113888548 L 5.217746954461251 -9.058042233411426 L 5.149077373393388 -9.176925696621408 C 5.285697482324215 -9.267166873836246 5.428070016894235 -9.34949846579719 5.575236239496915 -9.42344110370098 L 5.575236239496915 -9.42344110370098 Z" fill="#595959" transform="matrix(1,0,0,1,0,0)" fill-rule="nonzero"></path></g><g clip-path="url(#SvgjsClipPath10007d013e73-a913-43f1-b885-489781b1628d)"><path d=" M 3.4096876707424846 -10.070828672511798 L 4.309942283276147 -9.170574059978135 C 4.24894260306054 -9.115566489803353 4.189381029254735 -9.059120813218776 4.131257561858724 -9.001117188023581 C 4.07325393666353 -8.943113562828387 4.016688417878136 -8.883432146821761 3.9618006899041713 -8.822432466606157 L 3.4096876707424846 -9.374545485767843 L 3.4096876707424846 -10.070828672511798 L 3.4096876707424846 -10.070828672511798 Z M 4.671026834336308 -8.809489508917974 L 4.767859332596053 -8.712657010658228 L 4.419837581424893 -8.364515417286253 L 4.323005083165148 -8.461347915545996 C 4.377533284536662 -8.522707122364052 4.4338591189204255 -8.582508380571493 4.4919825863164355 -8.640512005766688 C 4.549986211511628 -8.69851563096188 4.60978746971907 -8.754841465345644 4.671146676537125 -8.809489508917974 L 4.671146676537125 -8.809489508917974 Z" fill="#595959" transform="matrix(1,0,0,1,0,0)" fill-rule="nonzero"></path></g><g clip-path="url(#SvgjsClipPath10007d013e73-a913-43f1-b885-489781b1628d)"><path d=" M 6.078333798524646 -11.758806071012415 L 6.475970220833843 -10.274919940502324 C 6.314183249731548 -10.240764913269617 6.155512175850482 -10.198220931979755 6.000316525793096 -10.147887207636817 L 5.568644918452007 -11.758806071012415 L 6.078333798524646 -11.758806071012415 Z M 6.608156168334462 -9.781649441941546 L 6.643749301976966 -9.648624599035214 L 6.168215449137033 -9.52123233956726 L 6.1325024732937115 -9.654496866875222 C 6.287218754547833 -9.70578932882469 6.446009670629717 -9.74845315231537 6.608156168334462 -9.781649441941546 L 6.608156168334462 -9.781649441941546 Z" fill="#595959" transform="matrix(1,0,0,1,0,0)" fill-rule="nonzero"></path></g><g clip-path="url(#SvgjsClipPath10007d013e73-a913-43f1-b885-489781b1628d)"><path d=" M 9.335764658918349 -11.758806071012415 L 8.90409305157726 -10.147887207636817 C 8.748897401519873 -10.198220931979755 8.590226327638806 -10.240764913269617 8.428439356536511 -10.274919940502324 L 8.82607577884571 -11.758806071012415 L 9.335764658918349 -11.758806071012415 Z M 8.771907104076647 -9.654377024674407 L 8.736194128233324 -9.521112497366442 L 8.26066027539339 -9.648504756834399 L 8.296253409035895 -9.781529599740729 C 8.458399906740642 -9.748333310114555 8.617070980621708 -9.705669486623876 8.77178726187583 -9.654377024674407 Z" fill="#595959" transform="matrix(1,0,0,1,0,0)" fill-rule="nonzero"></path></g><g clip-path="url(#SvgjsClipPath10007d013e73-a913-43f1-b885-489781b1628d)"><path d=" M 11.242214389507476 -11.75245443436914 L 10.010476249515332 -9.61914341763435 C 9.873256929580421 -9.708425857242656 9.731004237211218 -9.790877291404417 9.584437225612621 -9.86577866691474 L 10.67739809705924 -11.758806071012415 L 11.179297234078808 -11.758806071012415 C 11.200868830225781 -11.758806071012415 11.22184121536867 -11.75664891139772 11.24221438950748 -11.752454434369142 L 11.24221438950748 -11.752454434369142 Z M 9.755332203976971 -9.176925696621408 L 9.686662622909108 -9.058042233411426 L 9.260383914604763 -9.304198113888548 L 9.32929318007426 -9.42344110370098 C 9.47645940267694 -9.349498465797193 9.618712095046146 -9.267166873836246 9.755452046177787 -9.176925696621408 Z" fill="#595959" transform="matrix(1,0,0,1,0,0)" fill-rule="nonzero"></path></g><g clip-path="url(#SvgjsClipPath10007d013e73-a913-43f1-b885-489781b1628d)"><path d=" M 11.494721906627873 -9.374545485767841 L 10.942608887466188 -8.822432466606156 C 10.88760131729141 -8.883432146821761 10.831155640706829 -8.94299372062757 10.773152015511634 -9.001117188023581 C 10.715148390316443 -9.059120813218772 10.655466974309817 -9.115566489803351 10.594467294094208 -9.170574059978133 L 11.494721906627873 -10.070828672511796 L 11.494721906627873 -9.374545485767841 L 11.494721906627873 -9.374545485767841 Z M 10.581524336406025 -8.461347915545995 L 10.484691838146283 -8.36451541728625 L 10.136550244774305 -8.712537168457409 L 10.233382743034051 -8.809369666717156 C 10.294741949852105 -8.754841465345642 10.354423365858729 -8.698515630961879 10.412546833254739 -8.640392163565869 C 10.470550458449933 -8.582388538370676 10.526876292833695 -8.522587280163235 10.581524336406025 -8.461228073345177 Z" fill="#595959" transform="matrix(1,0,0,1,0,0)" fill-rule="nonzero"></path></g><g clip-path="url(#SvgjsClipPath10007d013e73-a913-43f1-b885-489781b1628d)"><path d=" M 7.4522047886851785 -10.214998840094065 C 8.704435945016947 -10.214998840094065 9.838143164741183 -9.707347277435305 10.658702713731863 -8.886787728444624 C 11.479262262722543 -8.066228179453944 11.9869138253813 -6.932401117528892 11.9869138253813 -5.680289803397941 C 11.9869138253813 -4.428178489266992 11.479262262722543 -3.2943514273419385 10.658702713731863 -2.4736720361504414 C 9.838023322540366 -1.6529926449589443 8.704316102816133 -1.1454609245010037 7.4522047886851785 -1.1454609245010037 C 6.200093474554228 -1.1454609245010037 5.066266412629176 -1.6531124871597616 4.245706863638497 -2.4736720361504414 C 3.425027472446999 -3.2943514273419385 2.9174957519890565 -4.428058647066171 2.9174957519890565 -5.680289803397941 C 2.9174957519890565 -6.932520959729709 3.425027472446999 -8.066228179453946 4.245706863638497 -8.886787728444624 C 5.066266412629178 -9.707467119636123 6.200093474554228 -10.214998840094065 7.4522047886851785 -10.214998840094065 L 7.4522047886851785 -10.214998840094065 Z M 10.310680962560703 -8.53864613507265 C 9.579164168776693 -9.270162928856656 8.568534889291017 -9.722687079139819 7.4522047886851785 -9.722687079139819 C 6.335874688079341 -9.722687079139819 5.325245408593666 -9.270162928856656 4.593728614809656 -8.53864613507265 C 3.862211821025647 -7.80712934128864 3.4096876707424855 -6.796500061802965 3.4096876707424855 -5.680169961197125 C 3.4096876707424855 -4.563839860591283 3.862211821025647 -3.55321058110561 4.593728614809656 -2.8216937873216015 C 5.325245408593666 -2.0901769935375913 6.335874688079341 -1.6376528432544308 7.4522047886851785 -1.6376528432544308 C 8.568534889291017 -1.6376528432544308 9.579164168776693 -2.0901769935375913 10.310680962560703 -2.8216937873216015 C 11.042197756344713 -3.55321058110561 11.494721906627873 -4.563839860591283 11.494721906627873 -5.680169961197125 C 11.494721906627873 -6.796500061802965 11.042197756344713 -7.80712934128864 10.310680962560703 -8.53864613507265 L 10.310680962560703 -8.53864613507265 Z" fill="#595959" transform="matrix(1,0,0,1,0,0)" fill-rule="nonzero"></path></g><g clip-path="url(#SvgjsClipPath10007d013e73-a913-43f1-b885-489781b1628d)"><path d=" M 4.7249558247037395 -2.457852865642659 C 5.148598004590122 -2.709042118554075 5.6037586832912485 -2.9015086930653986 6.077614745319748 -3.031417638750499 C 6.552070018352333 -3.161566268837234 7.041505566486983 -3.228318374692037 7.533218116437143 -3.228318374692037 C 8.024930666387306 -3.228318374692037 8.470264284621479 -3.1674385366772473 8.924586067916884 -3.0487947578688956 C 9.170861790594824 -2.9844394960304292 9.412343825240104 -2.903186483876828 9.647234538840472 -2.8057547746130016 C 9.484488830131646 -2.681957781169544 9.310837481148514 -2.571702956418349 9.127958282702512 -2.476548248970035 C 9.020100301967648 -2.5127405936166216 8.911283583626254 -2.545217830037899 8.801508127678325 -2.5739799582338634 C 8.391048589881759 -2.6812387279646455 7.9648897237782315 -2.7361264559386083 7.533218116437143 -2.7361264559386083 C 7.101546509096053 -2.7361264559386083 6.634521452514094 -2.6758458289279012 6.2064451111975 -2.5584004721277154 C 5.777769558876825 -2.4408352731267158 5.363355228453315 -2.26526644893052 4.97494665560699 -2.034809896760361 L 4.7249558247037395 -2.457852865642659 Z M 10.090410997459946 -2.598068240597984 C 10.136190718171855 -2.574099800434679 10.181491070080495 -2.5495321492672947 10.226551737587506 -2.5242454448950085 L 9.986148282749578 -2.0954500503735165 C 9.874934720391852 -2.157767994798105 9.76180368282106 -2.2157716199932977 9.646994854438839 -2.2692212415574637 C 9.80243018889786 -2.3688101104359873 9.950435306906256 -2.478825250785551 10.090410997459946 -2.598068240597984 L 10.090410997459946 -2.598068240597984 Z" fill="#595959" transform="matrix(1,0,0,1,0,0)" fill-rule="nonzero"></path></g><g clip-path="url(#SvgjsClipPath10007d013e73-a913-43f1-b885-489781b1628d)"><path d=" M 4.723877244896391 -3.8731892572857074 C 4.803212781836924 -3.909381601932294 4.883267371982356 -3.9440159979682683 4.963801330931054 -3.9770924453936267 C 4.992443616926201 -3.9353873595094786 5.021924798327065 -3.894521169031046 5.052484559535276 -3.8543740317575157 C 5.105095285693725 -3.785225081886386 5.12175335160722 -3.7039720697327887 5.100541282062698 -3.6197230025587785 C 5.079329212518175 -3.53547393538477 5.025999433154826 -3.4718377267511986 4.946903580615925 -3.435885066506245 C 4.871522836302336 -3.401730039273538 4.796621460792014 -3.366017063430217 4.722558980687408 -3.32874613897628 C 4.688044426852253 -3.3688932762498105 4.65436876842281 -3.40987930892906 4.621532005399086 -3.4515843948132066 C 4.567483172830839 -3.5203738180818878 4.549626684909177 -3.6022260412395664 4.570239543449619 -3.6871941616184785 C 4.590852401990059 -3.772162281997387 4.644182181353406 -3.8367572282374898 4.723757402695574 -3.8730694150848937 L 4.723757402695574 -3.8730694150848937 Z M 5.2795855300825725 -4.097653699415041 C 5.404820629935832 -4.141875471516334 5.531254151797254 -4.1823821353923165 5.658886095666843 -4.219293533243805 C 6.267564633613924 -4.3949821996408165 6.898413978712062 -4.4854630612572866 7.533218116437143 -4.4854630612572866 C 8.125957641675626 -4.4854630612572866 8.714263005483902 -4.407206104124102 9.283393617161533 -4.254766824685493 C 9.851325806831001 -4.102567229648519 10.399963402169007 -3.875945627904489 10.914685654675937 -3.578736969879529 L 10.668529774198817 -3.1537765257841652 C 10.192636394756434 -3.4285746922564364 9.684026094491141 -3.6384183858861547 9.156360884296024 -3.779832182849642 C 8.630013938309888 -3.920886453210681 8.084372397992297 -3.9931513003030386 7.533098274236323 -3.9931513003030386 C 6.939160326989675 -3.9931513003030386 6.353611333800181 -3.9098609707355596 5.793349044982973 -3.748193841834082 C 5.791431569769909 -3.747594630829999 5.789394252356027 -3.7471152620267336 5.787476777142963 -3.746516051022649 C 5.686329959653824 -3.717274554023417 5.584344246758969 -3.744598575809583 5.511480188662528 -3.8205785311272553 C 5.4280700168942335 -3.907583968920047 5.350532112965949 -4.000102147950395 5.279345845680939 -4.097653699415037 L 5.279345845680939 -4.097653699415037 Z" fill="#595959" transform="matrix(1,0,0,1,0,0)" fill-rule="nonzero"></path></g></g><g><path d=" M 0.252 1.062 L 0.618 1.062 L 0.618 1.173 L 0.1155 1.173 L 0.1155 0.12749999999999995 L 0.252 0.12749999999999995 L 0.252 1.062 M 0.7620102539062501 0.5377500000000001 Q 0.81301025390625 0.4425 0.9022602539062501 0.39 Q 0.9915102539062501 0.3375 1.10101025390625 0.3375 Q 1.20901025390625 0.3375 1.28851025390625 0.384 Q 1.3680102539062502 0.4305 1.4070102539062501 0.501 L 1.4070102539062501 0.351 L 1.54501025390625 0.351 L 1.54501025390625 1.173 L 1.4070102539062501 1.173 L 1.4070102539062501 1.02 Q 1.3665102539062501 1.092 1.2862602539062502 1.13925 Q 1.20601025390625 1.1865 1.09951025390625 1.1865 Q 0.9900102539062501 1.1865 0.9015102539062501 1.1325 Q 0.81301025390625 1.0785 0.7620102539062501 0.9810000000000001 Q 0.7110102539062501 0.8835000000000001 0.7110102539062501 0.759 Q 0.7110102539062501 0.633 0.7620102539062501 0.5377500000000001 M 1.36951025390625 0.5985 Q 1.3320102539062502 0.5295000000000001 1.26826025390625 0.49275 Q 1.2045102539062502 0.45600000000000007 1.12801025390625 0.45600000000000007 Q 1.0515102539062502 0.45600000000000007 0.98851025390625 0.492 Q 0.9255102539062501 0.528 0.88801025390625 0.597 Q 0.8505102539062501 0.666 0.8505102539062501 0.759 Q 0.8505102539062501 0.8535 0.88801025390625 0.92325 Q 0.9255102539062501 0.9930000000000001 0.98851025390625 1.02975 Q 1.0515102539062502 1.0665 1.12801025390625 1.0665 Q 1.2045102539062502 1.0665 1.26826025390625 1.02975 Q 1.3320102539062502 0.9930000000000001 1.36951025390625 0.92325 Q 1.4070102539062501 0.8535 1.4070102539062501 0.7605 Q 1.4070102539062501 0.6675 1.36951025390625 0.5985 M 2.4308415527343747 0.38475000000000004 Q 2.5110915527343747 0.3375 2.6175915527343747 0.3375 Q 2.727091552734375 0.3375 2.8163415527343747 0.39 Q 2.905591552734375 0.4425 2.9565915527343747 0.5377500000000001 Q 3.007591552734375 0.633 3.007591552734375 0.759 Q 3.007591552734375 0.8835000000000001 2.9565915527343747 0.9810000000000001 Q 2.905591552734375 1.0785 2.8163415527343747 1.1325 Q 2.727091552734375 1.1865 2.6175915527343747 1.1865 Q 2.5125915527343747 1.1865 2.432341552734375 1.13925 Q 2.352091552734375 1.092 2.3100915527343746 1.0215 L 2.3100915527343746 1.5630000000000002 L 2.1735915527343748 1.5630000000000002 L 2.1735915527343748 0.351 L 2.3100915527343746 0.351 L 2.3100915527343746 0.5025000000000001 Q 2.350591552734375 0.43200000000000005 2.4308415527343747 0.38475000000000004 M 2.830591552734375 0.597 Q 2.7930915527343747 0.528 2.729341552734375 0.492 Q 2.6655915527343748 0.45600000000000007 2.589091552734375 0.45600000000000007 Q 2.514091552734375 0.45600000000000007 2.4503415527343746 0.49275 Q 2.386591552734375 0.5295000000000001 2.3483415527343747 0.5992500000000001 Q 2.3100915527343746 0.669 2.3100915527343746 0.7605 Q 2.3100915527343746 0.8535 2.3483415527343747 0.92325 Q 2.386591552734375 0.9930000000000001 2.4503415527343746 1.02975 Q 2.514091552734375 1.0665 2.589091552734375 1.0665 Q 2.6655915527343748 1.0665 2.729341552734375 1.02975 Q 2.7930915527343747 0.9930000000000001 2.830591552734375 0.92325 Q 2.868091552734375 0.8535 2.868091552734375 0.759 Q 2.868091552734375 0.666 2.830591552734375 0.597 M 3.3226296386718746 0.06299999999999994 L 3.3226296386718746 1.173 L 3.1861296386718747 1.173 L 3.1861296386718747 0.06299999999999994 L 3.3226296386718746 0.06299999999999994 M 4.282587158203125 0.351 L 4.282587158203125 1.173 L 4.146087158203125 1.173 L 4.146087158203125 1.0515 Q 4.107087158203125 1.1145 4.037337158203124 1.14975 Q 3.967587158203125 1.185 3.8835871582031247 1.185 Q 3.7875871582031246 1.185 3.711087158203125 1.14525 Q 3.6345871582031246 1.1055000000000001 3.5903371582031247 1.026 Q 3.546087158203125 0.9465 3.546087158203125 0.8325 L 3.546087158203125 0.351 L 3.6810871582031246 0.351 L 3.6810871582031246 0.8145 Q 3.6810871582031246 0.936 3.7425871582031247 1.00125 Q 3.804087158203125 1.0665 3.910587158203125 1.0665 Q 4.020087158203125 1.0665 4.083087158203124 0.999 Q 4.146087158203125 0.9315 4.146087158203125 0.8025 L 4.146087158203125 0.351 L 4.282587158203125 0.351 M 5.671609130859375 0.37575000000000003 Q 5.746609130859374 0.4155 5.790109130859374 0.495 Q 5.833609130859375 0.5745 5.833609130859375 0.6885000000000001 L 5.833609130859375 1.173 L 5.698609130859374 1.173 L 5.698609130859374 0.708 Q 5.698609130859374 0.5850000000000001 5.637859130859375 0.51975 Q 5.577109130859375 0.4545 5.473609130859375 0.4545 Q 5.367109130859375 0.4545 5.304109130859374 0.52275 Q 5.241109130859375 0.5910000000000001 5.241109130859375 0.72 L 5.241109130859375 1.173 L 5.106109130859375 1.173 L 5.106109130859375 0.708 Q 5.106109130859375 0.5850000000000001 5.045359130859374 0.51975 Q 4.984609130859375 0.4545 4.881109130859374 0.4545 Q 4.774609130859375 0.4545 4.711609130859375 0.52275 Q 4.648609130859374 0.5910000000000001 4.648609130859374 0.72 L 4.648609130859374 1.173 L 4.512109130859375 1.173 L 4.512109130859375 0.351 L 4.648609130859374 0.351 L 4.648609130859374 0.46950000000000003 Q 4.689109130859375 0.405 4.757359130859375 0.37050000000000005 Q 4.825609130859375 0.3360000000000001 4.9081091308593745 0.3360000000000001 Q 5.011609130859375 0.3360000000000001 5.091109130859374 0.38250000000000006 Q 5.170609130859375 0.42900000000000005 5.209609130859374 0.519 Q 5.244109130859375 0.43200000000000005 5.323609130859374 0.384 Q 5.403109130859375 0.3360000000000001 5.500609130859375 0.3360000000000001 Q 5.596609130859375 0.3360000000000001 5.671609130859375 0.37575000000000003 M 6.801153076171874 0.8130000000000001 L 6.144153076171874 0.8130000000000001 Q 6.151653076171875 0.9345 6.227403076171875 1.00275 Q 6.303153076171874 1.071 6.411153076171875 1.071 Q 6.4996530761718745 1.071 6.558903076171875 1.02975 Q 6.6181530761718745 0.9885 6.642153076171875 0.9195 L 6.789153076171875 0.9195 Q 6.756153076171874 1.038 6.657153076171874 1.11225 Q 6.558153076171875 1.1865 6.411153076171875 1.1865 Q 6.294153076171875 1.1865 6.201903076171875 1.1340000000000001 Q 6.109653076171875 1.0815000000000001 6.057153076171875 0.98475 Q 6.004653076171874 0.888 6.004653076171874 0.7605 Q 6.004653076171874 0.633 6.0556530761718745 0.537 Q 6.106653076171875 0.44100000000000006 6.198903076171875 0.38925 Q 6.291153076171875 0.3375 6.411153076171875 0.3375 Q 6.528153076171875 0.3375 6.6181530761718745 0.38850000000000007 Q 6.708153076171874 0.4395 6.7569030761718745 0.52875 Q 6.8056530761718745 0.618 6.8056530761718745 0.7305 Q 6.8056530761718745 0.7695000000000001 6.801153076171874 0.8130000000000001 M 6.630153076171875 0.56775 Q 6.595653076171875 0.5115000000000001 6.536403076171875 0.48225000000000007 Q 6.4771530761718745 0.45300000000000007 6.4051530761718745 0.45300000000000007 Q 6.301653076171875 0.45300000000000007 6.228903076171875 0.519 Q 6.156153076171875 0.5850000000000001 6.145653076171874 0.702 L 6.6646530761718745 0.702 Q 6.6646530761718745 0.624 6.630153076171875 0.56775 M 7.383188964843749 0.5377500000000001 Q 7.43418896484375 0.4425 7.523438964843749 0.39 Q 7.612688964843749 0.3375 7.72368896484375 0.3375 Q 7.819688964843749 0.3375 7.9021889648437496 0.38175000000000003 Q 7.984688964843749 0.42600000000000005 8.02818896484375 0.498 L 8.02818896484375 0.06299999999999994 L 8.16618896484375 0.06299999999999994 L 8.16618896484375 1.173 L 8.02818896484375 1.173 L 8.02818896484375 1.0185 Q 7.987688964843749 1.092 7.90818896484375 1.13925 Q 7.828688964843749 1.1865 7.72218896484375 1.1865 Q 7.612688964843749 1.1865 7.523438964843749 1.1325 Q 7.43418896484375 1.0785 7.383188964843749 0.9810000000000001 Q 7.332188964843749 0.8835000000000001 7.332188964843749 0.759 Q 7.332188964843749 0.633 7.383188964843749 0.5377500000000001 M 7.990688964843749 0.5985 Q 7.95318896484375 0.5295000000000001 7.88943896484375 0.49275 Q 7.825688964843749 0.45600000000000007 7.749188964843749 0.45600000000000007 Q 7.67268896484375 0.45600000000000007 7.609688964843749 0.492 Q 7.546688964843749 0.528 7.50918896484375 0.597 Q 7.471688964843749 0.666 7.471688964843749 0.759 Q 7.471688964843749 0.8535 7.50918896484375 0.92325 Q 7.546688964843749 0.9930000000000001 7.609688964843749 1.02975 Q 7.67268896484375 1.0665 7.749188964843749 1.0665 Q 7.825688964843749 1.0665 7.88943896484375 1.02975 Q 7.95318896484375 0.9930000000000001 7.990688964843749 0.92325 Q 8.02818896484375 0.8535 8.02818896484375 0.7605 Q 8.02818896484375 0.6675 7.990688964843749 0.5985 M 9.14122705078125 0.8130000000000001 L 8.48422705078125 0.8130000000000001 Q 8.491727050781249 0.9345 8.56747705078125 1.00275 Q 8.643227050781249 1.071 8.75122705078125 1.071 Q 8.83972705078125 1.071 8.89897705078125 1.02975 Q 8.95822705078125 0.9885 8.98222705078125 0.9195 L 9.12922705078125 0.9195 Q 9.09622705078125 1.038 8.99722705078125 1.11225 Q 8.89822705078125 1.1865 8.75122705078125 1.1865 Q 8.634227050781249 1.1865 8.541977050781249 1.1340000000000001 Q 8.449727050781249 1.0815000000000001 8.39722705078125 0.98475 Q 8.34472705078125 0.888 8.34472705078125 0.7605 Q 8.34472705078125 0.633 8.39572705078125 0.537 Q 8.446727050781249 0.44100000000000006 8.538977050781249 0.38925 Q 8.63122705078125 0.3375 8.75122705078125 0.3375 Q 8.868227050781249 0.3375 8.95822705078125 0.38850000000000007 Q 9.04822705078125 0.4395 9.09697705078125 0.52875 Q 9.14572705078125 0.618 9.14572705078125 0.7305 Q 9.14572705078125 0.7695000000000001 9.14122705078125 0.8130000000000001 M 8.970227050781249 0.56775 Q 8.93572705078125 0.5115000000000001 8.876477050781249 0.48225000000000007 Q 8.81722705078125 0.45300000000000007 8.74522705078125 0.45300000000000007 Q 8.641727050781249 0.45300000000000007 8.56897705078125 0.519 Q 8.496227050781249 0.5850000000000001 8.48572705078125 0.702 L 9.00472705078125 0.702 Q 9.00472705078125 0.624 8.970227050781249 0.56775 M 9.4457197265625 1.15425 Q 9.3707197265625 1.122 9.327219726562499 1.0642500000000001 Q 9.283719726562499 1.0065 9.279219726562498 0.9315 L 9.420219726562499 0.9315 Q 9.426219726562499 0.9930000000000001 9.477969726562499 1.032 Q 9.529719726562499 1.071 9.613719726562499 1.071 Q 9.6917197265625 1.071 9.7367197265625 1.0365 Q 9.7817197265625 1.002 9.7817197265625 0.9495 Q 9.7817197265625 0.8955 9.7337197265625 0.8692500000000001 Q 9.6857197265625 0.843 9.5852197265625 0.8175000000000001 Q 9.4937197265625 0.7935000000000001 9.435969726562499 0.76875 Q 9.378219726562499 0.744 9.336969726562499 0.69525 Q 9.2957197265625 0.6465000000000001 9.2957197265625 0.5670000000000001 Q 9.2957197265625 0.504 9.333219726562499 0.4515 Q 9.3707197265625 0.399 9.4397197265625 0.3682500000000001 Q 9.5087197265625 0.3375 9.5972197265625 0.3375 Q 9.7337197265625 0.3375 9.8177197265625 0.4065 Q 9.901719726562499 0.47550000000000003 9.9077197265625 0.5955 L 9.7712197265625 0.5955 Q 9.7667197265625 0.531 9.7194697265625 0.492 Q 9.6722197265625 0.45300000000000007 9.5927197265625 0.45300000000000007 Q 9.519219726562499 0.45300000000000007 9.475719726562499 0.48450000000000004 Q 9.432219726562499 0.516 9.432219726562499 0.5670000000000001 Q 9.432219726562499 0.6075 9.4584697265625 0.63375 Q 9.4847197265625 0.66 9.524469726562499 0.6757500000000001 Q 9.564219726562499 0.6915 9.6347197265625 0.7110000000000001 Q 9.7232197265625 0.7350000000000001 9.7787197265625 0.7582500000000001 Q 9.8342197265625 0.7815000000000001 9.8739697265625 0.8280000000000001 Q 9.9137197265625 0.8745 9.9152197265625 0.9495 Q 9.9152197265625 1.0170000000000001 9.8777197265625 1.071 Q 9.8402197265625 1.125 9.7719697265625 1.15575 Q 9.703719726562499 1.1865 9.615219726562499 1.1865 Q 9.520719726562499 1.1865 9.4457197265625 1.15425 M 11.250221923828125 0.8130000000000001 L 10.593221923828125 0.8130000000000001 Q 10.600721923828123 0.9345 10.676471923828124 1.00275 Q 10.752221923828124 1.071 10.860221923828124 1.071 Q 10.948721923828124 1.071 11.007971923828125 1.02975 Q 11.067221923828125 0.9885 11.091221923828124 0.9195 L 11.238221923828124 0.9195 Q 11.205221923828125 1.038 11.106221923828125 1.11225 Q 11.007221923828125 1.1865 10.860221923828124 1.1865 Q 10.743221923828123 1.1865 10.650971923828124 1.1340000000000001 Q 10.558721923828124 1.0815000000000001 10.506221923828125 0.98475 Q 10.453721923828125 0.888 10.453721923828125 0.7605 Q 10.453721923828125 0.633 10.504721923828125 0.537 Q 10.555721923828123 0.44100000000000006 10.647971923828123 0.38925 Q 10.740221923828125 0.3375 10.860221923828124 0.3375 Q 10.977221923828123 0.3375 11.067221923828125 0.38850000000000007 Q 11.157221923828125 0.4395 11.205971923828125 0.52875 Q 11.254721923828125 0.618 11.254721923828125 0.7305 Q 11.254721923828125 0.7695000000000001 11.250221923828125 0.8130000000000001 M 11.079221923828124 0.56775 Q 11.044721923828124 0.5115000000000001 10.985471923828124 0.48225000000000007 Q 10.926221923828125 0.45300000000000007 10.854221923828124 0.45300000000000007 Q 10.750721923828124 0.45300000000000007 10.677971923828125 0.519 Q 10.605221923828124 0.5850000000000001 10.594721923828125 0.702 L 11.113721923828125 0.702 Q 11.113721923828125 0.624 11.079221923828124 0.56775 M 11.001221923828124 0.11850000000000005 L 10.681721923828125 0.2895 L 10.681721923828125 0.1875 L 11.001221923828124 0 L 11.001221923828124 0.11850000000000005 M 11.433214599609375 0.5377500000000001 Q 11.484214599609373 0.4425 11.574964599609373 0.39 Q 11.665714599609375 0.3375 11.782714599609374 0.3375 Q 11.934214599609374 0.3375 12.032464599609375 0.41100000000000003 Q 12.130714599609375 0.48450000000000004 12.162214599609374 0.615 L 12.015214599609374 0.615 Q 11.994214599609375 0.54 11.933464599609374 0.49650000000000005 Q 11.872714599609374 0.45300000000000007 11.782714599609374 0.45300000000000007 Q 11.665714599609375 0.45300000000000007 11.593714599609374 0.53325 Q 11.521714599609375 0.6135 11.521714599609375 0.7605 Q 11.521714599609375 0.909 11.593714599609374 0.99 Q 11.665714599609375 1.071 11.782714599609374 1.071 Q 11.872714599609374 1.071 11.932714599609374 1.029 Q 11.992714599609375 0.9870000000000001 12.015214599609374 0.909 L 12.162214599609374 0.909 Q 12.129214599609375 1.0350000000000001 12.030214599609375 1.1107500000000001 Q 11.931214599609374 1.1865 11.782714599609374 1.1865 Q 11.665714599609375 1.1865 11.574964599609373 1.1340000000000001 Q 11.484214599609373 1.0815000000000001 11.433214599609375 0.9855 Q 11.382214599609375 0.8895 11.382214599609375 0.7605 Q 11.382214599609375 0.633 11.433214599609375 0.5377500000000001 M 12.581456542968748 0.375 Q 12.64820654296875 0.3360000000000001 12.74420654296875 0.3360000000000001 L 12.74420654296875 0.477 L 12.70820654296875 0.477 Q 12.47870654296875 0.477 12.47870654296875 0.726 L 12.47870654296875 1.173 L 12.34220654296875 1.173 L 12.34220654296875 0.351 L 12.47870654296875 0.351 L 12.47870654296875 0.48450000000000004 Q 12.51470654296875 0.41400000000000003 12.581456542968748 0.375 M 12.904685302734373 0.1905 Q 12.877685302734374 0.16349999999999998 12.877685302734374 0.12450000000000006 Q 12.877685302734374 0.08549999999999991 12.904685302734373 0.058499999999999996 Q 12.931685302734374 0.031500000000000083 12.970685302734374 0.031500000000000083 Q 13.008185302734374 0.031500000000000083 13.034435302734375 0.058499999999999996 Q 13.060685302734374 0.08549999999999991 13.060685302734374 0.12450000000000006 Q 13.060685302734374 0.16349999999999998 13.034435302734375 0.1905 Q 13.008185302734374 0.21750000000000003 12.970685302734374 0.21750000000000003 Q 12.931685302734374 0.21750000000000003 12.904685302734373 0.1905 M 13.036685302734375 0.351 L 13.036685302734375 1.173 L 12.900185302734375 1.173 L 12.900185302734375 0.351 L 13.036685302734375 0.351 M 13.911142822265624 0.4267500000000001 Q 14.004142822265624 0.5175000000000001 14.004142822265624 0.6885000000000001 L 14.004142822265624 1.173 L 13.869142822265625 1.173 L 13.869142822265625 0.708 Q 13.869142822265625 0.5850000000000001 13.807642822265624 0.51975 Q 13.746142822265623 0.4545 13.639642822265625 0.4545 Q 13.531642822265624 0.4545 13.467892822265624 0.522 Q 13.404142822265625 0.5895 13.404142822265625 0.7185 L 13.404142822265625 1.173 L 13.267642822265625 1.173 L 13.267642822265625 0.351 L 13.404142822265625 0.351 L 13.404142822265625 0.4680000000000001 Q 13.444642822265624 0.405 13.514392822265624 0.37050000000000005 Q 13.584142822265624 0.3360000000000001 13.668142822265624 0.3360000000000001 Q 13.818142822265624 0.3360000000000001 13.911142822265624 0.4267500000000001 M 14.347664794921874 1.15425 Q 14.272664794921875 1.122 14.229164794921873 1.0642500000000001 Q 14.185664794921873 1.0065 14.181164794921873 0.9315 L 14.322164794921873 0.9315 Q 14.328164794921873 0.9930000000000001 14.379914794921874 1.032 Q 14.431664794921874 1.071 14.515664794921873 1.071 Q 14.593664794921875 1.071 14.638664794921874 1.0365 Q 14.683664794921874 1.002 14.683664794921874 0.9495 Q 14.683664794921874 0.8955 14.635664794921874 0.8692500000000001 Q 14.587664794921874 0.843 14.487164794921874 0.8175000000000001 Q 14.395664794921874 0.7935000000000001 14.337914794921874 0.76875 Q 14.280164794921873 0.744 14.238914794921874 0.69525 Q 14.197664794921874 0.6465000000000001 14.197664794921874 0.5670000000000001 Q 14.197664794921874 0.504 14.235164794921873 0.4515 Q 14.272664794921875 0.399 14.341664794921874 0.3682500000000001 Q 14.410664794921875 0.3375 14.499164794921874 0.3375 Q 14.635664794921874 0.3375 14.719664794921874 0.4065 Q 14.803664794921874 0.47550000000000003 14.809664794921874 0.5955 L 14.673164794921874 0.5955 Q 14.668664794921874 0.531 14.621414794921874 0.492 Q 14.574164794921874 0.45300000000000007 14.494664794921874 0.45300000000000007 Q 14.421164794921873 0.45300000000000007 14.377664794921873 0.48450000000000004 Q 14.334164794921874 0.516 14.334164794921874 0.5670000000000001 Q 14.334164794921874 0.6075 14.360414794921875 0.63375 Q 14.386664794921874 0.66 14.426414794921874 0.6757500000000001 Q 14.466164794921873 0.6915 14.536664794921874 0.7110000000000001 Q 14.625164794921874 0.7350000000000001 14.680664794921874 0.7582500000000001 Q 14.736164794921875 0.7815000000000001 14.775914794921874 0.8280000000000001 Q 14.815664794921874 0.8745 14.817164794921874 0.9495 Q 14.817164794921874 1.0170000000000001 14.779664794921874 1.071 Q 14.742164794921875 1.125 14.673914794921874 1.15575 Q 14.605664794921873 1.1865 14.517164794921873 1.1865 Q 14.422664794921873 1.1865 14.347664794921874 1.15425" fill="#595959" fill-rule="nonzero"></path></g><g></g></g><defs><clipPath id="SvgjsClipPath1001"><path d=" M 2.016641928451312 -13.148256547279093 h 10.86033992239425 v 12.898256547279093 h -10.86033992239425 Z"></path></clipPath><clipPath id="SvgjsClipPath10007d013e73-a913-43f1-b885-489781b1628d"><path d=" M 2.016641928451312 -13.148256547279093 L 12.876981850845562 -13.148256547279093 L 12.876981850845562 -0.25 L 2.016641928451312 -0.25 Z"></path></clipPath></defs></svg>