<svg xmlns="http://www.w3.org/2000/svg" version="1.1" xmlns:xlink="http://www.w3.org/1999/xlink" viewBox="0 0 38.683824627245414 21.27653132447256"><g transform="matrix(1,0,0,1,2.3693444386227114,15.37861088584985)"><rect width="38.683824627245414" height="38.683824627245414" x="-2.3693444386227114" y="-24.082257537236277" fill="#343432"></rect><g clip-path="url(#SvgjsClipPath1006)"><g clip-path="url(#SvgjsClipPath10004936076b-9dd2-4608-8612-833163e25910)"><path d=" M 22.344222961458865 -12.763984851723103 L 22.344222961458865 -5.62165508645887 C 22.344222961458865 -4.143326668897084 21.740443760926212 -2.800383259583535 20.76714173140077 -1.8270812300580932 C 19.793839701875328 -0.8537792005326512 18.45089629256178 -0.25 16.972567874999996 -0.25 C 15.49423945743821 -0.25 14.151296048124662 -0.8537792005326512 13.17799401859922 -1.8270812300580932 C 12.204691989073776 -2.800383259583535 11.600912788541123 -4.143326668897085 11.600912788541123 -5.62165508645887 L 11.600912788541123 -13.007488185297435 L 16.33440894382637 -13.007488185297435 L 16.33440894382637 -12.765644562857496 C 16.33440894382637 -12.699256117481825 16.307616464085477 -12.637135500737449 16.26067034914125 -12.590189385793225 C 16.224393805775264 -12.553912842427234 16.178870300374804 -12.529609929387927 16.129316067933676 -12.520481518148772 L 12.087919455689786 -12.520481518148772 L 12.087919455689786 -5.62165508645887 C 12.087919455689786 -4.277763270782813 12.637046739582825 -3.056571528256434 13.522265528190191 -2.17147129044438 C 14.407484316797557 -1.2862525018370121 15.62867605932394 -0.7371252179439747 16.972449324204682 -0.7371252179439747 C 18.31622258908542 -0.7371252179439747 19.537414331611803 -1.2863710526323242 20.42263312021917 -2.17147129044438 C 21.30785190882654 -3.056690079051746 21.856979192719578 -4.277881821578129 21.856979192719578 -5.62165508645887 L 21.856979192719578 -12.520481518148772 L 17.763301679742348 -12.520481518148772 C 17.71374744730122 -12.529609929387927 17.668342492696077 -12.553912842427234 17.631947398534773 -12.590189385793225 C 17.585119834385864 -12.637016949942135 17.558208803849652 -12.699137566686513 17.558208803849652 -12.765644562857496 L 17.558208803849652 -13.007488185297435 L 22.343867309072927 -13.007488185297435 L 22.343867309072927 -12.763984851723103 L 22.343867309072927 -12.763984851723103 Z" fill="#bfe4ff" transform="matrix(1,0,0,1,0,0)" fill-rule="nonzero"></path></g><g clip-path="url(#SvgjsClipPath10004936076b-9dd2-4608-8612-833163e25910)"><path d=" M 12.839531497978617 -4.862929996451216 L 16.977902660789113 -8.733020709466818 L 21.116273823599606 -4.862929996451216 L 20.785280003083763 -4.509055872439834 L 16.977902660789113 -8.06972900968669 L 13.170525318494455 -4.509055872439834 L 12.839531497978617 -4.862929996451216 Z" fill="#ffffff" transform="matrix(1,0,0,1,0,0)" fill-rule="nonzero"></path></g><g clip-path="url(#SvgjsClipPath10004936076b-9dd2-4608-8612-833163e25910)"><path d=" M 12.985941730191032 -4.572954751113915 C 13.588416871975236 -4.935364532387883 14.234755808025504 -5.212299190240678 14.906464614272906 -5.398779591269122 C 15.579596030064069 -5.585615644683507 16.276437604917973 -5.681641788887599 16.977902660789113 -5.681641788887599 C 17.679367716660252 -5.681641788887599 18.438804111439786 -5.57672433503498 19.139676413334357 -5.373054068686049 C 19.840311613638296 -5.169383802337118 20.510953462727876 -4.867909129854391 21.13026281744662 -4.474676141798863 L 20.86968816934712 -4.06377908524159 C 20.28653680719905 -4.434013219006264 19.658217592036458 -4.717112518215368 19.004647057472056 -4.907030892307908 C 18.35131362449828 -5.096949266400449 17.669172348263274 -5.194753672534248 16.977902660789113 -5.194753672534248 C 16.28663297331495 -5.194753672534248 15.66364854394148 -5.10524782207241 15.035803531960147 -4.930978152961275 C 14.406417359639736 -4.756352831464202 13.800385693996123 -4.4964894881365804 13.235135501940421 -4.156604357972213 L 12.985941730191033 -4.573191852704543 Z" fill="#ffffff" transform="matrix(1,0,0,1,0,0)" fill-rule="nonzero"></path></g><g clip-path="url(#SvgjsClipPath10004936076b-9dd2-4608-8612-833163e25910)"><path d=" M 17.221405994363444 -8.356384832755204 C 17.221405994363444 -7.47638227914164 17.02556008050522 -6.722517771741848 16.71128192212861 -6.154303809803302 C 16.358593306070365 -5.51685618340156 15.853685468829333 -5.106433330025545 15.29827499278467 -4.998789207880709 L 15.206990880393121 -5.476311811404277 C 15.61871779251759 -5.556096496650395 16.0040078772871 -5.87997726944741 16.285210363771185 -6.3883230797525385 C 16.562026470828666 -6.888725986771649 16.73439932721478 -7.561620300972188 16.73439932721478 -8.356384832755204 L 17.221405994363444 -8.356384832755204 Z" fill="#ffffff" transform="matrix(1,0,0,1,0,0)" fill-rule="nonzero"></path></g><g clip-path="url(#SvgjsClipPath10004936076b-9dd2-4608-8612-833163e25910)"><path d=" M 17.93626729010503 -12.121795193508813 L 21.463864755459362 -12.121795193508813 L 21.463864755459362 -6.891097002677924 C 21.35230845706917 -7.286582455844414 21.188589808740957 -7.665352246871671 20.9768580883107 -8.018159413725229 L 20.9768580883107 -11.322999934685129 C 20.9768580883107 -11.494780037094674 20.83673104824991 -11.634907077155463 20.664950945840367 -11.634907077155463 L 17.93626729010503 -11.634907077155463 L 17.93626729010503 -11.635855483517972 L 17.839055637947798 -11.635855483517972 L 17.839055637947798 -11.634907077155463 L 17.839055637947798 -11.634907077155463 C 17.662296402135077 -11.634907077155463 17.50130442209908 -11.56235399042348 17.384531888715088 -11.44558145703949 C 17.2677593553311 -11.3288089236555 17.195206268599115 -11.167935494414815 17.195206268599115 -10.991176258602092 L 17.195206268599115 -10.262563070604116 C 17.123127385048388 -10.265882492872901 17.05069284911172 -10.267660754802606 16.977784109993795 -10.267660754802606 C 16.887329853169447 -10.267660754802606 16.79734979952635 -10.26493408651039 16.708199601450453 -10.259836402311903 L 16.708199601450453 -10.991176258602092 C 16.708199601450453 -11.167935494414811 16.63564651471847 -11.328808923655497 16.51887398133448 -11.445581457039488 C 16.40210144795049 -11.562353990423478 16.241228018709805 -11.63490707715546 16.064468782897084 -11.63490707715546 L 13.290854375737855 -11.63490707715546 C 13.11907427332831 -11.63490707715546 12.978947233267522 -11.494780037094673 12.978947233267522 -11.322999934685129 L 12.978947233267522 -8.018277964520543 C 12.76721551283726 -7.665470797666984 12.603615415304361 -7.286701006639725 12.491940566118858 -6.891215553473235 L 12.491940566118858 -12.121913744304123 L 16.064468782897084 -12.121913744304123 C 16.241228018709805 -12.121913744304123 16.40210144795049 -12.194466831036106 16.51887398133448 -12.311239364420096 C 16.63564651471847 -12.428011897804087 16.708199601450453 -12.589003877840085 16.708199601450453 -12.765763113652806 L 16.708199601450453 -13.009266447227137 L 17.195206268599115 -13.009266447227137 L 17.195206268599115 -12.765763113652806 C 17.195206268599115 -12.589003877840085 17.267759355331094 -12.428011897804087 17.384531888715088 -12.311239364420096 C 17.50130442209908 -12.194466831036106 17.662177851339763 -12.121913744304123 17.839055637947798 -12.121913744304123 L 17.839055637947798 -12.121913744304123 L 17.839055637947798 -12.120965337941614 L 17.93626729010503 -12.120965337941614 L 17.93626729010503 -12.121913744304123 L 17.93626729010503 -12.121913744304123 Z M 17.139724496392304 -11.878291859934482 C 17.104870562570078 -11.905914195242573 17.071676339882245 -11.935433343275683 17.040260379124117 -11.966849304033813 C 17.00884441836599 -11.998265264791943 16.979325270332875 -12.031459487479777 16.951702935024784 -12.066313421302004 C 16.924080599716692 -12.031459487479777 16.894561451683582 -11.998265264791943 16.863145490925454 -11.966849304033813 C 16.831729530167326 -11.935433343275683 16.79853530747949 -11.905914195242573 16.763681373657263 -11.878291859934482 C 16.79853530747949 -11.85066952462639 16.831729530167326 -11.82115037659328 16.863145490925454 -11.78973441583515 C 16.894561451683582 -11.75831845507702 16.924080599716692 -11.725124232389186 16.951702935024784 -11.690270298566961 C 16.979325270332875 -11.725124232389188 17.00884441836599 -11.75831845507702 17.040260379124117 -11.78973441583515 C 17.071676339882245 -11.82115037659328 17.10487056257008 -11.85066952462639 17.139724496392304 -11.878291859934482 Z" fill="#ffffff" transform="matrix(1,0,0,1,0,0)" fill-rule="nonzero"></path></g><g clip-path="url(#SvgjsClipPath10004936076b-9dd2-4608-8612-833163e25910)"><path d=" M 13.78746365730693 -11.63478852636015 L 14.868646910567836 -9.762160163585012 C 14.723540737103873 -9.688065916513953 14.582939493861828 -9.60662152013344 14.447080282432331 -9.518182626829425 L 13.228615208198168 -11.628505334208525 C 13.248768843401496 -11.632654612044503 13.269515232581393 -11.63478852636015 13.290735824942544 -11.63478852636015 L 13.787345106511616 -11.63478852636015 Z M 15.121278655381321 -9.32458917808216 L 15.189326811891384 -9.206631136745031 L 14.767523082165253 -8.9631278031707 L 14.699593476450506 -9.080730192121887 C 14.834741383108117 -9.1699989409931 14.975579727940788 -9.251443337373608 15.121160104586005 -9.32458917808216 L 15.121160104586005 -9.32458917808216 Z" fill="#ffffff" transform="matrix(1,0,0,1,0,0)" fill-rule="nonzero"></path></g><g clip-path="url(#SvgjsClipPath10004936076b-9dd2-4608-8612-833163e25910)"><path d=" M 12.978947233267524 -9.965000574366744 L 13.869500807664005 -9.074446999970263 C 13.809158452849335 -9.020032184921275 13.75023870757843 -8.964194760328525 13.692741571851286 -8.906816175396695 C 13.635362986919457 -8.849437590464866 13.579407011531394 -8.790399294398645 13.52511074727772 -8.730056939583974 L 12.978947233267524 -9.276220453594172 L 12.978947233267524 -9.965000574366746 L 12.978947233267524 -9.965000574366746 Z M 14.226694353944172 -8.717253453690097 L 14.32248339655764 -8.621464411076628 L 13.978211886966667 -8.277074350690345 L 13.8824228443532 -8.37286339330381 C 13.936363456220931 -8.433561400504422 13.992082330018368 -8.492718247365957 14.049579465745513 -8.550096832297786 C 14.10695805067734 -8.607475417229615 14.166114897538874 -8.663194291027052 14.226812904739486 -8.717253453690097 L 14.226812904739486 -8.717253453690097 Z" fill="#ffffff" transform="matrix(1,0,0,1,0,0)" fill-rule="nonzero"></path></g><g clip-path="url(#SvgjsClipPath10004936076b-9dd2-4608-8612-833163e25910)"><path d=" M 15.618836343312902 -11.63478852636015 L 16.012187882163744 -10.16689257878597 C 15.852144308490253 -10.133105602121566 15.69518305549492 -10.091020069785205 15.541659775563685 -10.041228735753453 L 15.114639810843753 -11.63478852636015 L 15.618836343312902 -11.63478852636015 Z M 16.142949409394753 -9.678937505274797 L 16.178158995602917 -9.547346122476593 L 15.707749439798175 -9.421326627058136 L 15.672421302794692 -9.553155111446966 C 15.825470379544672 -9.603894851841225 15.982550183335322 -9.646098934972903 16.142949409394753 -9.678937505274797 L 16.142949409394753 -9.678937505274797 Z" fill="#ffffff" transform="matrix(1,0,0,1,0,0)" fill-rule="nonzero"></path></g><g clip-path="url(#SvgjsClipPath10004936076b-9dd2-4608-8612-833163e25910)"><path d=" M 18.841165510734466 -11.63478852636015 L 18.414145546014534 -10.041228735753453 C 18.2606222660833 -10.091020069785205 18.103661013087965 -10.133105602121566 17.943617439414474 -10.16689257878597 L 18.33696897826532 -11.63478852636015 L 18.841165510734466 -11.63478852636015 Z M 18.28338401878353 -9.553036560651652 L 18.248055881780047 -9.421208076262822 L 17.7776463259753 -9.547227571681281 L 17.812855912183473 -9.678818954479482 C 17.9732551382429 -9.64598038417759 18.130216391238235 -9.603776301045913 18.283265467988215 -9.553036560651652 Z" fill="#ffffff" transform="matrix(1,0,0,1,0,0)" fill-rule="nonzero"></path></g><g clip-path="url(#SvgjsClipPath10004936076b-9dd2-4608-8612-833163e25910)"><path d=" M 20.72707156258474 -11.628505334208525 L 19.508606488350576 -9.518182626829425 C 19.372865827716396 -9.606502969338129 19.232146033679037 -9.688065916513953 19.08715841101039 -9.762160163585012 L 20.168341664271296 -11.63478852636015 L 20.664832395045053 -11.63478852636015 C 20.68617153820152 -11.63478852636015 20.70691792738142 -11.632654612044504 20.727071562584747 -11.628505334208525 L 20.727071562584747 -11.628505334208525 Z M 19.25621184512772 -9.080730192121887 L 19.18828223941297 -8.9631278031707 L 18.766597060482155 -9.206631136745031 L 18.834763767787532 -9.32458917808216 C 18.98034414443275 -9.251443337373612 19.121063938470108 -9.1699989409931 19.25633039592303 -9.080730192121887 Z" fill="#ffffff" transform="matrix(1,0,0,1,0,0)" fill-rule="nonzero"></path></g><g clip-path="url(#SvgjsClipPath10004936076b-9dd2-4608-8612-833163e25910)"><path d=" M 20.9768580883107 -9.27622045359417 L 20.430694574300503 -8.730056939583974 C 20.376279759251517 -8.790399294398645 20.320442334658765 -8.84931903966955 20.263063749726935 -8.906816175396695 C 20.205685164795106 -8.964194760328523 20.146646868728887 -9.020032184921273 20.086304513914214 -9.07444699997026 L 20.9768580883107 -9.965000574366744 L 20.9768580883107 -9.27622045359417 L 20.9768580883107 -9.27622045359417 Z M 20.073501028020335 -8.372863393303808 L 19.97771198540687 -8.277074350690341 L 19.633321925020585 -8.621345860281313 L 19.72911096763405 -8.71713490289478 C 19.789808974834664 -8.66319429102705 19.848847270900883 -8.607475417229612 19.906344406628023 -8.549978281502469 C 19.963722991559855 -8.49259969657064 20.01944186535729 -8.433442849709106 20.073501028020335 -8.372744842508492 Z" fill="#ffffff" transform="matrix(1,0,0,1,0,0)" fill-rule="nonzero"></path></g><g clip-path="url(#SvgjsClipPath10004936076b-9dd2-4608-8612-833163e25910)"><path d=" M 16.977902660789113 -10.10761718112912 C 18.21663992102192 -10.10761718112912 19.338130444689483 -9.605436012180304 20.149847740202357 -8.793718716667428 C 20.961565035715232 -7.982001421154553 21.463746204664048 -6.860392346691676 21.463746204664048 -5.621773637254183 C 21.463746204664048 -4.383154927816692 20.961565035715232 -3.2615458533538124 20.149847740202357 -2.449710007045624 C 19.33801189389417 -1.637874160737434 18.216521370226605 -1.1358115425839337 16.977902660789113 -1.1358115425839337 C 15.739283951351618 -1.1358115425839337 14.61767487688874 -1.6379927115327497 13.805957581375868 -2.449710007045624 C 12.994121735067678 -3.2615458533538124 12.492059116914175 -4.383036377021375 12.492059116914175 -5.621773637254183 C 12.492059116914175 -6.860510897486991 12.994121735067678 -7.982001421154555 13.805957581375868 -8.793718716667428 C 14.617674876888742 -9.60555456297562 15.739283951351618 -10.10761718112912 16.977902660789113 -10.10761718112912 L 16.977902660789113 -10.10761718112912 Z M 19.805576230611386 -8.449328656281143 C 19.081942176016586 -9.172962710875941 18.082203319136188 -9.620610513980457 16.977902660789113 -9.620610513980457 C 15.873602002442036 -9.620610513980457 14.87386314556164 -9.172962710875941 14.150229090966839 -8.449328656281143 C 13.42659503637204 -7.725694601686344 12.978947233267524 -6.725955744805947 12.978947233267524 -5.62165508645887 C 12.978947233267524 -4.5173544281117906 13.42659503637204 -3.5176155712313957 14.150229090966839 -2.793981516636597 C 14.87386314556164 -2.0703474620417968 15.873602002442036 -1.6226996589372824 16.977902660789113 -1.6226996589372824 C 18.082203319136188 -1.6226996589372824 19.081942176016586 -2.0703474620417968 19.805576230611386 -2.793981516636597 C 20.529210285206183 -3.5176155712313957 20.9768580883107 -4.5173544281117906 20.9768580883107 -5.62165508645887 C 20.9768580883107 -6.725955744805947 20.529210285206183 -7.725694601686344 19.805576230611386 -8.449328656281143 L 19.805576230611386 -8.449328656281143 Z" fill="#ffffff" transform="matrix(1,0,0,1,0,0)" fill-rule="nonzero"></path></g><g clip-path="url(#SvgjsClipPath10004936076b-9dd2-4608-8612-833163e25910)"><path d=" M 14.280042211835335 -2.4340613020642135 C 14.69911927326925 -2.6825437690417218 15.149375193870668 -2.872936346315516 15.61812503854102 -3.0014454084355613 C 16.08746763718794 -3.1301915721462343 16.57162908524908 -3.196224365135965 17.05804299842117 -3.196224365135965 C 17.544456911593265 -3.196224365135965 17.98499166697896 -3.1360005611166084 18.434417732013177 -3.0186352737560487 C 18.678039616382822 -2.9549734966725953 18.91691946893992 -2.8745960574499065 19.149279027754762 -2.7782142608598726 C 18.988287047718764 -2.6557512893008255 18.81650694530922 -2.5466845576122257 18.63559843166052 -2.45255522613315 C 18.528902715878193 -2.4883575663178856 18.42125859373336 -2.5204848318478987 18.31266606522601 -2.5489370227231873 C 17.906629591276605 -2.655039984528944 17.485062963141104 -2.7093362487826163 17.05804299842117 -2.7093362487826163 C 16.631023033701236 -2.7093362487826163 16.169030584363764 -2.6497051987398272 15.74556714350324 -2.533525419332406 C 15.321510948666152 -2.417227089129671 14.911562298471392 -2.2435501739951054 14.527339170859705 -2.015576994606869 L 14.280042211835335 -2.4340613020642135 Z M 19.58767986882481 -2.5727657325812388 C 19.63296627263464 -2.5490555735184994 19.677778473263217 -2.5247526604791943 19.722353572301166 -2.4997384426680025 L 19.484540676901894 -2.075563697035598 C 19.374525538850786 -2.137210110598721 19.262613588074654 -2.1945886955305483 19.149041926164134 -2.247462350240456 C 19.302802307686 -2.3459780611461376 19.44921253989841 -2.4548076912441115 19.58767986882481 -2.5727657325812388 L 19.58767986882481 -2.5727657325812388 Z" fill="#ffffff" transform="matrix(1,0,0,1,0,0)" fill-rule="nonzero"></path></g><g clip-path="url(#SvgjsClipPath10004936076b-9dd2-4608-8612-833163e25910)"><path d=" M 14.278975254677512 -3.834146194718965 C 14.357455881175177 -3.869948534903699 14.436647812444727 -3.90420971474936 14.51631394689553 -3.936929734255939 C 14.544647586975504 -3.8956740574867723 14.573811082622672 -3.855248236284803 14.604041535427665 -3.815533719854715 C 14.656085334570376 -3.747129910958712 14.67256389511898 -3.666752471736027 14.651580404348458 -3.5834112626304986 C 14.630596913577932 -3.500070053524972 14.577841809663338 -3.4371195812133983 14.4995982847563 -3.4015543426192902 C 14.425029834503983 -3.3677673659548866 14.350935587432923 -3.332439228951406 14.27767119592906 -3.2955699316088456 C 14.243528566878716 -3.335284448038932 14.210215793395566 -3.375828820036217 14.177732875479615 -3.4170844968053835 C 14.124266466793138 -3.4851326533154463 14.106602398291397 -3.566102846514699 14.126993135085353 -3.6501553603921124 C 14.14738387187931 -3.7342078742695204 14.200138975793902 -3.7981067529436032 14.278856703882198 -3.834027643923653 L 14.278856703882198 -3.834027643923653 Z M 14.828695292547119 -4.056191834341517 C 14.952580873649932 -4.099937077812271 15.07765196270588 -4.140007246628299 15.203908559714966 -4.17652089158492 C 15.806028049113227 -4.350316357514798 16.430079435644522 -4.439822207976638 17.05804299842117 -4.439822207976638 C 17.644395232042708 -4.439822207976638 18.22636108623764 -4.362408538636796 18.789358813182382 -4.211611926997774 C 19.35117103217399 -4.06105241694938 19.893896573120088 -3.836872863011182 20.403072238992408 -3.5428668906332135 L 20.15956890541808 -3.1224857704508473 C 19.688803697227392 -3.3943227441051533 19.185674121916065 -3.601905186699435 18.663694970149866 -3.7417951251695953 C 18.14301987713211 -3.881329411253816 17.603258106068857 -3.9528155408279737 17.05792444762585 -3.9528155408279737 C 16.470386706051176 -3.9528155408279737 15.891147520148461 -3.8704227380849545 15.336922552056933 -3.7104977152067793 C 15.335025739331915 -3.70990496123021 15.33301037581158 -3.7094307580489563 15.33111356308656 -3.708838004072387 C 15.2310566918418 -3.679911610015843 15.130169965029845 -3.706941191347365 15.05809108147912 -3.782102395576249 C 14.975579727940787 -3.8681702729739946 14.898877363372826 -3.9596914869561672 14.828458190956491 -4.056191834341513 L 14.828458190956491 -4.056191834341513 Z" fill="#ffffff" transform="matrix(1,0,0,1,0,0)" fill-rule="nonzero"></path></g></g><g><path d=" M 0.5806079999999999 2.3742719999999995 L 1.4238719999999998 2.3742719999999995 L 1.4238719999999998 2.6300159999999995 L 0.26611199999999996 2.6300159999999995 L 0.26611199999999996 0.22118400000000005 L 0.5806079999999999 0.22118400000000005 L 0.5806079999999999 2.3742719999999995 M 1.755671625 1.1663999999999997 Q 1.873175625 0.9469439999999998 2.078807625 0.8259839999999998 Q 2.284439625 0.7050239999999999 2.536727625 0.7050239999999999 Q 2.785559625 0.7050239999999999 2.9687276249999996 0.8121599999999998 Q 3.151895625 0.9192959999999997 3.241751625 1.0817279999999998 L 3.241751625 0.7361279999999997 L 3.5597036249999996 0.7361279999999997 L 3.5597036249999996 2.6300159999999995 L 3.241751625 2.6300159999999995 L 3.241751625 2.2775039999999995 Q 3.148439625 2.4433919999999993 2.963543625 2.5522559999999994 Q 2.7786476249999996 2.6611199999999995 2.533271625 2.6611199999999995 Q 2.280983625 2.6611199999999995 2.077079625 2.5367039999999994 Q 1.873175625 2.4122879999999993 1.755671625 2.1876479999999994 Q 1.638167625 1.9630079999999994 1.638167625 1.6761599999999997 Q 1.638167625 1.3858559999999998 1.755671625 1.1663999999999997 M 3.1553516249999998 1.3063679999999998 Q 3.0689516249999995 1.1473919999999997 2.922071625 1.0627199999999997 Q 2.7751916249999997 0.9780479999999998 2.598935625 0.9780479999999998 Q 2.422679625 0.9780479999999998 2.277527625 1.0609919999999997 Q 2.132375625 1.1439359999999996 2.045975625 1.3029119999999996 Q 1.959575625 1.4618879999999996 1.959575625 1.6761599999999997 Q 1.959575625 1.8938879999999996 2.045975625 2.0545919999999995 Q 2.132375625 2.2152959999999995 2.277527625 2.2999679999999993 Q 2.422679625 2.3846399999999996 2.598935625 2.3846399999999996 Q 2.7751916249999997 2.3846399999999996 2.922071625 2.2999679999999993 Q 3.0689516249999995 2.2152959999999995 3.1553516249999998 2.0545919999999995 Q 3.241751625 1.8938879999999996 3.241751625 1.6796159999999998 Q 3.241751625 1.4653439999999998 3.1553516249999998 1.3063679999999998 M 5.6006589374999995 0.8138879999999997 Q 5.785554937499999 0.7050239999999999 6.030930937499999 0.7050239999999999 Q 6.283218937499999 0.7050239999999999 6.488850937499999 0.8259839999999998 Q 6.694482937499999 0.9469439999999998 6.811986937499999 1.1663999999999997 Q 6.929490937499999 1.3858559999999998 6.929490937499999 1.6761599999999997 Q 6.929490937499999 1.9630079999999994 6.811986937499999 2.1876479999999994 Q 6.694482937499999 2.4122879999999993 6.488850937499999 2.5367039999999994 Q 6.283218937499999 2.6611199999999995 6.030930937499999 2.6611199999999995 Q 5.7890109375 2.6611199999999995 5.6041149374999994 2.5522559999999994 Q 5.419218937499999 2.4433919999999993 5.322450937499999 2.2809599999999994 L 5.322450937499999 3.5285759999999993 L 5.007954937499999 3.5285759999999993 L 5.007954937499999 0.7361279999999997 L 5.322450937499999 0.7361279999999997 L 5.322450937499999 1.0851839999999997 Q 5.415762937499999 0.9227519999999998 5.6006589374999995 0.8138879999999997 M 6.5216829375 1.3029119999999996 Q 6.435282937499999 1.1439359999999996 6.288402937499999 1.0609919999999997 Q 6.1415229375 0.9780479999999998 5.965266937499999 0.9780479999999998 Q 5.7924669374999995 0.9780479999999998 5.645586937499999 1.0627199999999997 Q 5.4987069375 1.1473919999999997 5.4105789374999995 1.3080959999999997 Q 5.322450937499999 1.4687999999999997 5.322450937499999 1.6796159999999998 Q 5.322450937499999 1.8938879999999996 5.4105789374999995 2.0545919999999995 Q 5.4987069375 2.2152959999999995 5.645586937499999 2.2999679999999993 Q 5.7924669374999995 2.3846399999999996 5.965266937499999 2.3846399999999996 Q 6.1415229375 2.3846399999999996 6.288402937499999 2.2999679999999993 Q 6.435282937499999 2.2152959999999995 6.5216829375 2.0545919999999995 Q 6.608082937499999 1.8938879999999996 6.608082937499999 1.6761599999999997 Q 6.608082937499999 1.4618879999999996 6.5216829375 1.3029119999999996 M 7.655338687499999 0.07257599999999975 L 7.655338687499999 2.6300159999999995 L 7.340842687499999 2.6300159999999995 L 7.340842687499999 0.07257599999999975 L 7.655338687499999 0.07257599999999975 M 9.867080812499998 0.7361279999999997 L 9.867080812499998 2.6300159999999995 L 9.552584812499997 2.6300159999999995 L 9.552584812499997 2.3500799999999993 Q 9.462728812499998 2.4952319999999997 9.302024812499997 2.5764479999999996 Q 9.141320812499998 2.6576639999999996 8.947784812499998 2.6576639999999996 Q 8.7266008125 2.6576639999999996 8.550344812499999 2.5660799999999995 Q 8.374088812499998 2.4744959999999994 8.272136812499998 2.2913279999999996 Q 8.170184812499999 2.10816 8.170184812499999 1.8455039999999996 L 8.170184812499999 0.7361279999999997 L 8.481224812499999 0.7361279999999997 L 8.481224812499999 1.8040319999999996 Q 8.481224812499999 2.0839679999999996 8.622920812499999 2.2343039999999994 Q 8.764616812499998 2.3846399999999996 9.009992812499998 2.3846399999999996 Q 9.262280812499998 2.3846399999999996 9.407432812499998 2.2291199999999995 Q 9.552584812499997 2.0735999999999994 9.552584812499997 1.7763839999999997 L 9.552584812499997 0.7361279999999997 L 9.867080812499998 0.7361279999999997 M 13.067387437499999 0.7931519999999999 Q 13.240187437499998 0.8847359999999997 13.340411437499998 1.0679039999999997 Q 13.4406354375 1.2510719999999997 13.4406354375 1.5137279999999997 L 13.4406354375 2.6300159999999995 L 13.129595437499999 2.6300159999999995 L 13.129595437499999 1.5586559999999996 Q 13.129595437499999 1.2752639999999997 12.9896274375 1.1249279999999997 Q 12.849659437499998 0.9745919999999997 12.6111954375 0.9745919999999997 Q 12.365819437499999 0.9745919999999997 12.2206674375 1.1318399999999997 Q 12.075515437499998 1.2890879999999998 12.075515437499998 1.5863039999999997 L 12.075515437499998 2.6300159999999995 L 11.7644754375 2.6300159999999995 L 11.7644754375 1.5586559999999996 Q 11.7644754375 1.2752639999999997 11.624507437499998 1.1249279999999997 Q 11.484539437499999 0.9745919999999997 11.246075437499998 0.9745919999999997 Q 11.0006994375 0.9745919999999997 10.855547437499999 1.1318399999999997 Q 10.710395437499999 1.2890879999999998 10.710395437499999 1.5863039999999997 L 10.710395437499999 2.6300159999999995 L 10.395899437499999 2.6300159999999995 L 10.395899437499999 0.7361279999999997 L 10.710395437499999 0.7361279999999997 L 10.710395437499999 1.0091519999999998 Q 10.803707437499998 0.8605439999999998 10.9609554375 0.7810559999999998 Q 11.118203437499998 0.7015679999999997 11.308283437499998 0.7015679999999997 Q 11.546747437499999 0.7015679999999997 11.729915437499999 0.8087039999999999 Q 11.9130834375 0.9158399999999998 12.002939437499998 1.1231999999999998 Q 12.082427437499998 0.9227519999999998 12.265595437499998 0.8121599999999998 Q 12.448763437499998 0.7015679999999997 12.6734034375 0.7015679999999997 Q 12.894587437499998 0.7015679999999997 13.067387437499999 0.7931519999999999 M 15.6698566875 1.8005759999999995 L 14.156128687499999 1.8005759999999995 Q 14.1734086875 2.0805119999999997 14.347936687499999 2.2377599999999997 Q 14.5224646875 2.3950079999999994 14.7712966875 2.3950079999999994 Q 14.9752006875 2.3950079999999994 15.111712687499999 2.2999679999999993 Q 15.248224687499999 2.2049279999999998 15.303520687499999 2.0459519999999998 L 15.642208687499998 2.0459519999999998 Q 15.566176687499999 2.3189759999999997 15.3380806875 2.4900479999999994 Q 15.109984687499999 2.6611199999999995 14.7712966875 2.6611199999999995 Q 14.5017286875 2.6611199999999995 14.289184687499999 2.5401599999999993 Q 14.0766406875 2.4191999999999996 13.9556806875 2.1962879999999996 Q 13.834720687499999 1.9733759999999996 13.834720687499999 1.6796159999999998 Q 13.834720687499999 1.3858559999999998 13.9522246875 1.1646719999999997 Q 14.0697286875 0.9434879999999997 14.282272687499999 0.8242559999999997 Q 14.4948166875 0.7050239999999999 14.7712966875 0.7050239999999999 Q 15.0408646875 0.7050239999999999 15.248224687499999 0.8225279999999997 Q 15.4555846875 0.9400319999999998 15.567904687499999 1.1456639999999998 Q 15.680224687499999 1.3512959999999996 15.680224687499999 1.6104959999999997 Q 15.680224687499999 1.7003519999999996 15.6698566875 1.8005759999999995 M 15.2758726875 1.2355199999999997 Q 15.1963846875 1.1059199999999998 15.0598726875 1.0385279999999997 Q 14.923360687499999 0.9711359999999998 14.7574726875 0.9711359999999998 Q 14.5190086875 0.9711359999999998 14.351392687499999 1.1231999999999998 Q 14.1837766875 1.2752639999999997 14.159584687499999 1.5448319999999995 L 15.3553606875 1.5448319999999995 Q 15.3553606875 1.3651199999999997 15.2758726875 1.2355199999999997 M 17.010867375 1.1663999999999997 Q 17.128371375 0.9469439999999998 17.334003375 0.8259839999999998 Q 17.539635375 0.7050239999999999 17.795379375 0.7050239999999999 Q 18.016563375 0.7050239999999999 18.206643375 0.8069759999999997 Q 18.396723375 0.9089279999999997 18.496947375 1.0748159999999998 L 18.496947375 0.07257599999999975 L 18.814899375 0.07257599999999975 L 18.814899375 2.6300159999999995 L 18.496947375 2.6300159999999995 L 18.496947375 2.2740479999999996 Q 18.403635375 2.4433919999999993 18.220467375 2.5522559999999994 Q 18.037299375 2.6611199999999995 17.791923375 2.6611199999999995 Q 17.539635375 2.6611199999999995 17.334003375 2.5367039999999994 Q 17.128371375 2.4122879999999993 17.010867375 2.1876479999999994 Q 16.893363375 1.9630079999999994 16.893363375 1.6761599999999997 Q 16.893363375 1.3858559999999998 17.010867375 1.1663999999999997 M 18.410547375 1.3063679999999998 Q 18.324147375 1.1473919999999997 18.177267375 1.0627199999999997 Q 18.030387375 0.9780479999999998 17.854131375 0.9780479999999998 Q 17.677875375 0.9780479999999998 17.532723375 1.0609919999999997 Q 17.387571375 1.1439359999999996 17.301171375 1.3029119999999996 Q 17.214771375 1.4618879999999996 17.214771375 1.6761599999999997 Q 17.214771375 1.8938879999999996 17.301171375 2.0545919999999995 Q 17.387571375 2.2152959999999995 17.532723375 2.2999679999999993 Q 17.677875375 2.3846399999999996 17.854131375 2.3846399999999996 Q 18.030387375 2.3846399999999996 18.177267375 2.2999679999999993 Q 18.324147375 2.2152959999999995 18.410547375 2.0545919999999995 Q 18.496947375 1.8938879999999996 18.496947375 1.6796159999999998 Q 18.496947375 1.4653439999999998 18.410547375 1.3063679999999998 M 21.061387125000003 1.8005759999999995 L 19.547659125000003 1.8005759999999995 Q 19.564939125000002 2.0805119999999997 19.739467125 2.2377599999999997 Q 19.913995125000003 2.3950079999999994 20.162827125 2.3950079999999994 Q 20.366731125 2.3950079999999994 20.503243125 2.2999679999999993 Q 20.639755125 2.2049279999999998 20.695051125000003 2.0459519999999998 L 21.033739125 2.0459519999999998 Q 20.957707125000002 2.3189759999999997 20.729611125 2.4900479999999994 Q 20.501515125 2.6611199999999995 20.162827125 2.6611199999999995 Q 19.893259125 2.6611199999999995 19.680715125000003 2.5401599999999993 Q 19.468171125 2.4191999999999996 19.347211125 2.1962879999999996 Q 19.226251125 1.9733759999999996 19.226251125 1.6796159999999998 Q 19.226251125 1.3858559999999998 19.343755125 1.1646719999999997 Q 19.461259125 0.9434879999999997 19.673803125000003 0.8242559999999997 Q 19.886347125 0.7050239999999999 20.162827125 0.7050239999999999 Q 20.432395125000003 0.7050239999999999 20.639755125 0.8225279999999997 Q 20.847115125000002 0.9400319999999998 20.959435125000002 1.1456639999999998 Q 21.071755125000003 1.3512959999999996 21.071755125000003 1.6104959999999997 Q 21.071755125000003 1.7003519999999996 21.061387125000003 1.8005759999999995 M 20.667403125 1.2355199999999997 Q 20.587915125000002 1.1059199999999998 20.451403125000002 1.0385279999999997 Q 20.314891125000003 0.9711359999999998 20.149003125 0.9711359999999998 Q 19.910539125 0.9711359999999998 19.742923125 1.1231999999999998 Q 19.575307125000002 1.2752639999999997 19.551115125000003 1.5448319999999995 L 20.746891125 1.5448319999999995 Q 20.746891125 1.3651199999999997 20.667403125 1.2355199999999997 M 21.76293825 2.5868159999999993 Q 21.590138250000003 2.5125119999999996 21.48991425 2.3794559999999993 Q 21.38969025 2.2463999999999995 21.37932225 2.0735999999999994 L 21.704186250000003 2.0735999999999994 Q 21.718010250000003 2.2152959999999995 21.837242250000003 2.3051519999999996 Q 21.956474250000003 2.3950079999999994 22.15001025 2.3950079999999994 Q 22.329722250000003 2.3950079999999994 22.43340225 2.3155199999999994 Q 22.53708225 2.2360319999999994 22.53708225 2.1150719999999996 Q 22.53708225 1.9906559999999995 22.42649025 1.9301759999999994 Q 22.315898250000004 1.8696959999999996 22.084346250000003 1.8109439999999997 Q 21.87353025 1.7556479999999997 21.740474250000002 1.6986239999999997 Q 21.607418250000002 1.6415999999999995 21.51237825 1.5292799999999998 Q 21.417338250000004 1.4169599999999996 21.417338250000004 1.2337919999999998 Q 21.417338250000004 1.0886399999999996 21.50373825 0.9676799999999997 Q 21.590138250000003 0.8467199999999997 21.74911425 0.7758719999999997 Q 21.90809025 0.7050239999999999 22.111994250000002 0.7050239999999999 Q 22.42649025 0.7050239999999999 22.620026250000002 0.8639999999999997 Q 22.81356225 1.0229759999999997 22.827386250000004 1.2994559999999997 L 22.51289025 1.2994559999999997 Q 22.502522250000002 1.1508479999999996 22.39365825 1.0609919999999997 Q 22.28479425 0.9711359999999998 22.101626250000002 0.9711359999999998 Q 21.932282250000004 0.9711359999999998 21.832058250000003 1.0437119999999998 Q 21.731834250000002 1.1162879999999997 21.731834250000002 1.2337919999999998 Q 21.731834250000002 1.3271039999999996 21.792314250000004 1.3875839999999997 Q 21.852794250000002 1.4480639999999996 21.944378250000003 1.4843519999999997 Q 22.03596225 1.5206399999999995 22.198394250000003 1.5655679999999996 Q 22.40229825 1.6208639999999996 22.53017025 1.6744319999999995 Q 22.65804225 1.7279999999999998 22.749626250000002 1.8351359999999994 Q 22.841210250000003 1.9422719999999996 22.844666250000003 2.1150719999999996 Q 22.844666250000003 2.2705919999999997 22.758266250000002 2.3950079999999994 Q 22.67186625 2.5194239999999994 22.51461825 2.5902719999999997 Q 22.357370250000002 2.6611199999999995 22.15346625 2.6611199999999995 Q 21.935738250000004 2.6611199999999995 21.76293825 2.5868159999999993 M 24.517375312500004 0.476928 L 24.517375312500004 1.2821759999999998 L 25.3951993125 1.2821759999999998 L 25.3951993125 1.5413759999999996 L 24.517375312500004 1.5413759999999996 L 24.517375312500004 2.3708159999999996 L 25.4988793125 2.3708159999999996 L 25.4988793125 2.6300159999999995 L 24.202879312500002 2.6300159999999995 L 24.202879312500002 0.2177279999999997 L 25.4988793125 0.2177279999999997 L 25.4988793125 0.476928 L 24.517375312500004 0.476928 M 25.972353000000002 1.1663999999999997 Q 26.089857000000002 0.9469439999999998 26.298945000000003 0.8259839999999998 Q 26.508033 0.7050239999999999 26.777601 0.7050239999999999 Q 27.126657 0.7050239999999999 27.353025000000002 0.8743679999999998 Q 27.579393000000003 1.0437119999999998 27.651969 1.3443839999999996 L 27.313281000000003 1.3443839999999996 Q 27.264897 1.1715839999999997 27.124929 1.0713599999999996 Q 26.984961000000002 0.9711359999999998 26.777601 0.9711359999999998 Q 26.508033 0.9711359999999998 26.342145000000002 1.1560319999999997 Q 26.176257000000003 1.3409279999999997 26.176257000000003 1.6796159999999998 Q 26.176257000000003 2.0217599999999996 26.342145000000002 2.2083839999999997 Q 26.508033 2.3950079999999994 26.777601 2.3950079999999994 Q 26.984961000000002 2.3950079999999994 27.123201 2.2982399999999994 Q 27.261441 2.2014719999999994 27.313281000000003 2.0217599999999996 L 27.651969 2.0217599999999996 Q 27.575937000000003 2.3120639999999995 27.347841000000003 2.4865919999999995 Q 27.119745 2.6611199999999995 26.777601 2.6611199999999995 Q 26.508033 2.6611199999999995 26.298945000000003 2.5401599999999993 Q 26.089857000000002 2.4191999999999996 25.972353000000002 2.1980159999999995 Q 25.854849 1.9768319999999995 25.854849 1.6796159999999998 Q 25.854849 1.3858559999999998 25.972353000000002 1.1663999999999997 M 28.6179024375 0.7914239999999997 Q 28.771694437500003 0.7015679999999997 28.9928784375 0.7015679999999997 L 28.9928784375 1.0264319999999998 L 28.909934437500002 1.0264319999999998 Q 28.381166437500003 1.0264319999999998 28.381166437500003 1.6001279999999996 L 28.381166437500003 2.6300159999999995 L 28.0666704375 2.6300159999999995 L 28.0666704375 0.7361279999999997 L 28.381166437500003 0.7361279999999997 L 28.381166437500003 1.0437119999999998 Q 28.4641104375 0.8812799999999998 28.6179024375 0.7914239999999997 M 29.3626215 0.366336 Q 29.3004135 0.30412799999999995 29.3004135 0.2142719999999998 Q 29.3004135 0.12441600000000008 29.3626215 0.06220800000000004 Q 29.4248295 0 29.5146855 0 Q 29.6010855 0 29.661565500000002 0.06220800000000004 Q 29.7220455 0.12441600000000008 29.7220455 0.2142719999999998 Q 29.7220455 0.30412799999999995 29.661565500000002 0.366336 Q 29.6010855 0.42854400000000004 29.5146855 0.42854400000000004 Q 29.4248295 0.42854400000000004 29.3626215 0.366336 M 29.6667495 0.7361279999999997 L 29.6667495 2.6300159999999995 L 29.3522535 2.6300159999999995 L 29.3522535 0.7361279999999997 L 29.6667495 0.7361279999999997 M 31.681499625 0.9106559999999997 Q 31.895771625 1.1197439999999996 31.895771625 1.5137279999999997 L 31.895771625 2.6300159999999995 L 31.584731625 2.6300159999999995 L 31.584731625 1.5586559999999996 Q 31.584731625 1.2752639999999997 31.443035625 1.1249279999999997 Q 31.301339625 0.9745919999999997 31.055963625 0.9745919999999997 Q 30.807131625 0.9745919999999997 30.660251625 1.1301119999999998 Q 30.513371625 1.2856319999999997 30.513371625 1.5828479999999996 L 30.513371625 2.6300159999999995 L 30.198875625 2.6300159999999995 L 30.198875625 0.7361279999999997 L 30.513371625 0.7361279999999997 L 30.513371625 1.0056959999999997 Q 30.606683625 0.8605439999999998 30.767387624999998 0.7810559999999998 Q 30.928091625 0.7015679999999997 31.121627625 0.7015679999999997 Q 31.467227625 0.7015679999999997 31.681499625 0.9106559999999997 M 32.68724625 2.5868159999999993 Q 32.51444625 2.5125119999999996 32.41422225 2.3794559999999993 Q 32.313998250000004 2.2463999999999995 32.303630250000005 2.0735999999999994 L 32.62849425 2.0735999999999994 Q 32.64231825 2.2152959999999995 32.76155025 2.3051519999999996 Q 32.88078225 2.3950079999999994 33.074318250000005 2.3950079999999994 Q 33.25403025 2.3950079999999994 33.357710250000004 2.3155199999999994 Q 33.46139025 2.2360319999999994 33.46139025 2.1150719999999996 Q 33.46139025 1.9906559999999995 33.350798250000004 1.9301759999999994 Q 33.24020625 1.8696959999999996 33.00865425 1.8109439999999997 Q 32.797838250000005 1.7556479999999997 32.66478225 1.6986239999999997 Q 32.531726250000006 1.6415999999999995 32.43668625 1.5292799999999998 Q 32.341646250000004 1.4169599999999996 32.341646250000004 1.2337919999999998 Q 32.341646250000004 1.0886399999999996 32.42804625 0.9676799999999997 Q 32.51444625 0.8467199999999997 32.67342225 0.7758719999999997 Q 32.832398250000004 0.7050239999999999 33.036302250000006 0.7050239999999999 Q 33.350798250000004 0.7050239999999999 33.54433425 0.8639999999999997 Q 33.73787025 1.0229759999999997 33.75169425 1.2994559999999997 L 33.43719825 1.2994559999999997 Q 33.42683025 1.1508479999999996 33.317966250000005 1.0609919999999997 Q 33.20910225 0.9711359999999998 33.02593425 0.9711359999999998 Q 32.85659025 0.9711359999999998 32.75636625 1.0437119999999998 Q 32.65614225 1.1162879999999997 32.65614225 1.2337919999999998 Q 32.65614225 1.3271039999999996 32.71662225 1.3875839999999997 Q 32.77710225 1.4480639999999996 32.86868625 1.4843519999999997 Q 32.96027025 1.5206399999999995 33.12270225 1.5655679999999996 Q 33.326606250000005 1.6208639999999996 33.45447825 1.6744319999999995 Q 33.582350250000005 1.7279999999999998 33.67393425 1.8351359999999994 Q 33.76551825 1.9422719999999996 33.76897425 2.1150719999999996 Q 33.76897425 2.2705919999999997 33.68257425 2.3950079999999994 Q 33.596174250000004 2.5194239999999994 33.43892625 2.5902719999999997 Q 33.28167825 2.6611199999999995 33.077774250000004 2.6611199999999995 Q 32.86004625 2.6611199999999995 32.68724625 2.5868159999999993" fill="#f9f9f9" fill-rule="nonzero"></path></g><g></g></g><defs><clipPath id="SvgjsClipPath1006"><path d=" M 11.600912788541125 -13.009266447227139 h 10.743310172917742 v 12.759266447227139 h -10.743310172917742 Z"></path></clipPath><clipPath id="SvgjsClipPath10004936076b-9dd2-4608-8612-833163e25910"><path d=" M 11.600912788541125 -13.009266447227139 L 22.34422296145887 -13.009266447227139 L 22.34422296145887 -0.25 L 11.600912788541125 -0.25 Z"></path></clipPath></defs></svg>